<?xml version="1.0" ?><!DOCTYPE svg  PUBLIC '-//W3C//DTD SVG 1.1//EN'  'http://www.w3.org/Graphics/SVG/1.1/DTD/svg11.dtd'><svg enable-background="new 0 0 512 512" height="512px" id="Layer_1" version="1.1" viewBox="0 0 512 512" width="512px" xml:space="preserve" xmlns="http://www.w3.org/2000/svg" xmlns:xlink="http://www.w3.org/1999/xlink"><path d="M512,256C512,40.15,471.85,0,256,0C40.549,0,0,39.281,0,256c0,215.029,40.549,256,256,256  C472.508,512,512,471.722,512,256z" fill="#E63225"/><path d="M343,3.288v505.437c126.098-11.697,161.947-58.575,168-200.058V203.613  C504.913,61.905,468.784,15.005,343,3.288z" fill="#E63225"/><path d="M256,0C61.785,0,9.695,31.926,1.313,196.963l475.386-43.226L468.54,50.836C432.125,10.717,367.508,0,256,0z" fill="#E63225"/><path d="M263.247,511.983c1.358-0.006,2.712-0.013,4.056-0.023c0.545-0.004,1.087-0.008,1.629-0.013  c1.402-0.011,2.796-0.024,4.182-0.04c0.428-0.005,0.857-0.009,1.284-0.014c1.706-0.02,3.403-0.043,5.086-0.07  c0.086-0.001,0.172-0.002,0.258-0.004c5.698-0.091,11.261-0.217,16.692-0.382c0.041-0.001,0.082-0.003,0.122-0.004  c1.799-0.055,3.585-0.114,5.356-0.177l196.809-401.447c-17.834-65.111-56.915-93.606-136.05-104.298L118.864,500.845  c1.066,0.251,2.142,0.497,3.226,0.739c0.298,0.066,0.602,0.13,0.901,0.196c0.788,0.173,1.577,0.345,2.375,0.513  c0.393,0.083,0.792,0.162,1.188,0.244c0.713,0.147,1.427,0.294,2.147,0.437c0.439,0.087,0.883,0.171,1.324,0.257  c0.686,0.133,1.372,0.266,2.065,0.395c0.468,0.087,0.941,0.172,1.413,0.258c0.676,0.123,1.353,0.246,2.036,0.366  c0.487,0.086,0.979,0.169,1.469,0.253c0.678,0.116,1.358,0.231,2.043,0.344c0.5,0.082,1.003,0.163,1.506,0.244  c0.683,0.11,1.369,0.218,2.058,0.325c0.515,0.08,1.032,0.158,1.551,0.236c0.685,0.103,1.372,0.205,2.063,0.305  c0.532,0.077,1.066,0.154,1.603,0.229c0.693,0.098,1.389,0.194,2.089,0.288c0.535,0.073,1.07,0.145,1.608,0.216  c0.714,0.094,1.432,0.186,2.152,0.277c0.537,0.068,1.074,0.136,1.615,0.203c0.728,0.089,1.462,0.177,2.197,0.263  c0.54,0.064,1.08,0.128,1.624,0.19c0.756,0.086,1.519,0.17,2.282,0.254c0.531,0.058,1.061,0.117,1.596,0.174  c0.793,0.084,1.593,0.165,2.393,0.247c0.514,0.052,1.026,0.106,1.543,0.157c0.852,0.084,1.712,0.164,2.571,0.245  c0.476,0.045,0.948,0.091,1.427,0.134c0.99,0.09,1.99,0.177,2.991,0.263c0.355,0.031,0.706,0.063,1.063,0.093  c2.73,0.229,5.502,0.443,8.314,0.642c0.464,0.033,0.934,0.063,1.399,0.095c0.944,0.065,1.888,0.13,2.842,0.191  c0.55,0.035,1.107,0.068,1.661,0.103c0.881,0.055,1.762,0.11,2.651,0.162c0.594,0.035,1.194,0.067,1.792,0.101  c0.855,0.048,1.709,0.096,2.571,0.141c0.627,0.033,1.259,0.064,1.89,0.096c0.847,0.043,1.695,0.085,2.549,0.126  c0.645,0.03,1.295,0.059,1.944,0.089c0.847,0.038,1.694,0.076,2.548,0.112c0.668,0.028,1.34,0.055,2.013,0.082  c0.848,0.034,1.697,0.067,2.551,0.098c0.682,0.025,1.367,0.05,2.053,0.074c0.849,0.03,1.701,0.058,2.557,0.086  c0.707,0.023,1.416,0.045,2.128,0.067c0.851,0.026,1.705,0.05,2.563,0.074c0.714,0.02,1.429,0.039,2.147,0.058  c0.878,0.023,1.761,0.044,2.645,0.065c0.707,0.017,1.414,0.033,2.126,0.048c0.904,0.019,1.815,0.037,2.726,0.055  c0.709,0.014,1.417,0.028,2.129,0.04c0.922,0.016,1.851,0.03,2.779,0.045c0.711,0.011,1.42,0.022,2.135,0.032  c0.954,0.013,1.915,0.024,2.877,0.035c0.701,0.008,1.399,0.017,2.104,0.024c1.023,0.01,2.055,0.018,3.086,0.026  c0.649,0.005,1.294,0.011,1.947,0.015c1.149,0.007,2.309,0.012,3.468,0.017c0.55,0.002,1.095,0.006,1.648,0.008  c1.714,0.005,3.439,0.008,5.176,0.008c1.889,0,3.76-0.004,5.622-0.01C262.166,511.988,262.705,511.985,263.247,511.983z" fill="#F05223"/><path d="M1.276,197.703l208.19,313.512C223.99,511.758,239.479,512,256,512c21.71,0,41.635-0.406,59.924-1.353  L26.603,74.96C11.271,104.065,3.963,143.818,1.276,197.703z" fill="#F16023"/><path d="M511.557,292.372L56.794,473.163c30.804,24.357,77.159,34.691,145.896,37.774l298.617-118.715  C507.481,365.139,510.509,332.236,511.557,292.372z" fill="#F05223"/><path d="M2.715,175.526C0.786,199.169,0,225.867,0,256c0,2.863,0.009,5.688,0.023,8.49l511.868,10.198  C511.964,268.608,512,262.384,512,256c0-25.912-0.581-49.284-1.973-70.367L2.715,175.526z" fill="#F05223"/><path d="M263.608,0.019l219.278,441.67c18.651-32.11,26.377-77.958,28.482-142.773L365.925,5.965  C337.431,1.88,303.629,0.203,263.608,0.019z" fill="#EF4023"/><path d="M157.891,4.392l111.094,507.555c34.543-0.28,64.346-1.731,90.021-4.96L248.042,0.02  C213.568,0.184,183.712,1.441,157.891,4.392z" fill="#F16023"/><path d="M485.37,75.082c-14.557-27.582-36.354-45.648-68.317-57.128L32.429,446.27  c16.21,25.031,39.827,41.17,73.652,51.187L485.37,75.082z" fill="#E63225"/><path d="M353.292,4.348C325.688,1.214,293.498,0,256,0C85.534,0,24.561,24.595,6.529,142.204L353.292,4.348z" fill="#E63225"/><path d="M511.999,256.912c0-0.305,0.001-0.606,0.001-0.912c0-35.571-1.072-66.372-3.835-93.013L65.724,32.433  c-25.938,16.799-42.329,41.549-52.252,77.375L511.999,256.912z" fill="#EF4023"/><path d="M425.941,232.595v-0.02c-0.789-9.417-4.838-18.092-10.854-24.946c-6.022-6.846-14.02-11.922-22.858-14.171  v-0.009c-0.046,0-0.087-0.02-0.139-0.026l-0.155-0.046h-0.015c-3.74-0.959-7.598-1.452-11.451-1.452  c-8.676,0-17.355,2.426-24.68,7.303c-2.003,1.194-3.757,2.58-5.416,3.925c-0.767-0.408-1.617-0.872-2.073-1.144l-0.347-0.205h-0.039  c-24.159-13.885-51.701-20.456-79.081-22.241c0.148-11.039,1.122-22.156,6.007-31.667v-0.024v-0.009  c3.219-6.475,9.855-10.978,17-11.664h0.015c1.382-0.139,2.761-0.216,4.141-0.216c9.539-0.009,19.138,3.332,28.178,7.356  c-0.015,0.479-0.061,0.974-0.061,1.458c0,9.98,4.265,19.227,10.884,26.149c6.595,6.933,15.574,11.588,25.205,12.327  c1.563,0.207,3.136,0.294,4.692,0.294c9.709,0,19.168-3.842,26.474-10.204c7.262-6.336,12.388-15.221,13.229-25.345  c0.007-0.024,0.007-0.052,0.007-0.076l0.015-0.031c0.17-1.447,0.248-2.894,0.248-4.337c0-7.835-2.53-15.454-6.835-21.816  c-4.296-6.336-10.355-11.431-17.518-14.188c-0.026,0-0.057-0.024-0.094-0.035c0,0-0.009,0-0.015-0.02v0.02  c-4.993-2.232-10.324-3.199-15.614-3.199c-5.017,0-10.01,0.861-14.742,2.334l-0.076,0.031l-0.076,0.046  c-8.057,3.178-14.929,8.842-19.739,16.104c-10.869-4.344-22.485-7.127-34.237-7.127c-4.411,0-8.855,0.392-13.26,1.247l-0.061,0.009  l-0.046,0.024c-11.566,2.829-21.28,10.995-26.879,21.483c-6.721,12.626-8.413,27.047-8.655,40.83  c-27.814,1.617-56.356,7.227-80.912,21.766c-1.604,0.612-3.038,1.386-4.352,2.073c-4.049-3.219-8.594-5.542-13.168-7.469  l-0.031-0.009l-0.031-0.024c-5.357-2.055-11-2.966-16.629-2.966c-1.186,0-2.373,0.046-3.548,0.124c-0.155,0-0.309,0-0.464,0  c-11.209,0-21.657,5.172-29.307,13.085c-7.65,7.916-12.573,18.65-12.58,29.983v0.065v0.031v0.031  c0.351,8.092,3.128,15.744,7.51,22.28c4.102,6.081,9.631,11.178,16.01,14.77c-0.442,3.282-0.665,6.595-0.665,9.908  c0,14.639,4.182,29.205,11.806,41.625c14.166,23.272,37.266,39.158,61.513,49.151h0.024l0.009,0.022  c23.383,9.378,48.445,13.901,73.526,13.901c16.825,0,33.655-2.025,49.975-5.987l0.022-0.02h0.009  c30.606-7.807,60.915-23.292,80.655-49.547h0.024V332.1c10.677-14.007,16.808-31.486,16.814-49.269c0-3.302-0.246-6.615-0.665-9.901  c6.549-3.576,12.24-8.855,16.365-15.16c4.42-6.737,7.068-14.676,7.068-22.934c0-0.737-0.015-1.478-0.068-2.221v-0.031h0.011v0.011  L425.941,232.595L425.941,232.595z M396.244,251.515c-6.373-13.8-16.23-25.526-27.468-35.283c3.535-1.776,7.517-2.67,11.518-2.67  c4.426,0,8.84,1.081,12.61,3.206c3.773,2.112,6.902,5.209,8.892,9.313l0.015,0.046l0.039,0.035c1.489,2.761,2.169,5.723,2.175,8.696  c0,3.52-0.968,7.09-2.674,10.267C400.045,247.548,398.295,249.73,396.244,251.515z M381.69,283.612  c0,3.439-0.344,6.863-1.061,10.241l-0.009,0.009v0.026c-1.75,9.036-5.691,17.361-11.067,24.804  c-5.353,7.443-12.126,13.986-19.441,19.386l-0.009,0.02c-22.969,17.067-51.385,25.419-79.678,27.753  c-4.723,0.344-9.5,0.51-14.254,0.51c-28.1,0-56.402-6.013-80.979-19.73c-1.927-1.083-3.807-2.19-5.682-3.352  c-8.463-5.361-16.505-11.93-23.063-19.632c-6.562-7.687-11.627-16.512-14.219-26.393l-0.015-0.009  c-1.199-4.409-1.765-8.934-1.765-13.46c0-12.296,4.228-24.645,11.442-34.592v-0.015c14.238-19.918,36.447-32.779,59.468-40.084  c17.721-5.466,36.229-8.203,54.739-8.203c13.781,0,27.577,1.526,41.037,4.59c4.501,1.027,8.964,2.23,13.384,3.585l0.163,0.057  c23.026,7.218,45.162,20.169,59.431,40.023C377.27,259.054,381.69,271.361,381.69,283.612z M218.263,250.212  c-4.019-3.705-9.356-5.972-14.881-5.972c-1.478,0-2.981,0.174-4.45,0.517c-0.024,0-0.039,0.009-0.061,0.009c0,0-0.015,0-0.024,0  c-7.314,1.53-13.733,6.959-16.1,14.421v0.009c0,0.015-0.009,0.031-0.009,0.031c-0.68,2.044-0.996,4.156-0.996,6.242  c0,4.579,1.51,9.032,4.117,12.7c2.585,3.605,6.242,6.438,10.631,7.759c0.035,0,0.05,0.009,0.081,0.024  c0.031,0,0.068,0.011,0.102,0.031c2.16,0.789,4.389,1.179,6.595,1.179c5.503,0,10.854-2.251,14.903-5.926  c4.043-3.683,6.811-8.897,6.811-14.838c0-0.155,0-0.314-0.009-0.495c0.015-0.268,0.024-0.56,0.024-0.857  C224.997,259.141,222.267,253.908,218.263,250.212z M254.287,327.035c-13.162,0-26.245-2.777-38.095-8.598l-0.061-0.031  l-0.061-0.024c-1.787-0.73-3.823-2.286-6.044-3.762c-1.131-0.73-2.308-1.458-3.616-1.99c-1.292-0.551-2.724-0.937-4.259-0.937  c-1.271,0-2.602,0.288-3.919,0.885c-0.068,0.026-0.133,0.052-0.201,0.081h0.009c-2.066,0.789-3.683,2.232-4.723,3.945  c-1.083,1.765-1.617,3.814-1.617,5.858c0,1.844,0.434,3.69,1.338,5.364c0.859,1.587,2.175,2.973,3.903,3.903  c16.939,11.427,36.885,16.603,56.908,16.583c18.055,0,36.211-4.178,52.385-11.786l0.087-0.052l0.081-0.046  c2.129-1.258,4.963-2.391,7.635-4.043c1.323-0.843,2.611-1.813,3.718-3.08c1.107-1.258,1.999-2.811,2.5-4.647v-0.007  c0.207-0.809,0.309-1.602,0.309-2.389c0-1.504-0.371-2.927-0.981-4.209c-0.896-1.922-2.365-3.507-4.084-4.631  c-1.741-1.129-3.755-1.813-5.889-1.813c-1.72,0-3.507,0.49-5.093,1.545C289.496,322.125,271.827,327.035,254.287,327.035z   M329.116,258.657c-0.015-0.024-0.031-0.039-0.031-0.068c-0.015-0.026-0.015-0.052-0.031-0.081  c-1.484-4.416-4.442-7.968-8.088-10.392c-3.692-2.463-8.066-3.807-12.508-3.807c-2.437,0-4.899,0.429-7.238,1.295  c-0.015,0-0.015,0.02-0.039,0.02c0,0-0.015,0.009-0.031,0.009c-4.126,1.438-7.654,4.235-10.154,7.754  c-2.509,3.544-4.028,7.826-4.028,12.292c0,1.314,0.148,2.639,0.434,3.971h-0.015c0.015,0.024,0.015,0.039,0.015,0.054  c0.009,0.022,0.009,0.037,0.009,0.052h0.009c0.913,5.157,3.827,9.5,7.68,12.527c3.879,3.034,8.733,4.817,13.678,4.817  c2.112,0,4.235-0.331,6.31-1.042c0.015,0,0.046-0.015,0.061-0.015c0.02-0.011,0.057-0.011,0.096-0.026h-0.009  c4.426-1.24,8.19-4.06,10.845-7.687c2.685-3.675,4.287-8.175,4.287-12.809c0-2.301-0.401-4.616-1.277-6.861L329.116,258.657  L329.116,258.657z M115.88,251.485c-1.962-1.783-3.694-3.838-5.017-6.085c-1.787-3.023-2.842-6.342-2.842-9.777  c0-0.429,0.015-0.88,0.054-1.329l0.009-0.046v-0.052c0.207-5.568,2.901-10.618,6.974-14.358c4.069-3.755,9.489-6.096,14.862-6.244  l0.087-0.011h0.087c0.628-0.068,1.262-0.107,1.89-0.107c3.74-0.015,7.526,1.201,11.187,2.905  C131.964,226.077,122.159,237.741,115.88,251.485z M359.843,125.004l0.046-0.02l0.054-0.002c1.495-0.464,3.025-0.678,4.568-0.678  c4.782-0.011,9.629,2.145,13.229,5.63c3.616,3.487,5.924,8.195,5.924,13.131c0,0.375-0.015,0.721-0.046,1.088v0.031l-0.009,0.024  c-0.185,4.797-2.478,9.252-5.961,12.527c-3.476,3.26-8.103,5.27-12.765,5.261c-0.325,0-0.665,0-0.996-0.026h-0.061h-0.061  c-4.62-0.02-9.171-2.044-12.602-5.316c-3.415-3.271-5.66-7.698-5.837-12.456v-0.046v-0.024c-0.037-0.386-0.046-0.767-0.046-1.138  c0-4.128,1.617-8.099,4.276-11.311C352.212,128.456,355.904,126.026,359.843,125.004z" fill="#FFFFFF"/><g opacity="0.5"><path d="M398.033,121.76c4.304,6.362,6.835,13.981,6.835,21.816c0,1.443-0.078,2.89-0.248,4.337l-0.015,0.031   c0,0.024,0,0.052-0.007,0.076c-0.841,10.123-5.967,19.009-13.229,25.345c-7.306,6.362-16.764,10.204-26.474,10.204   c-1.556,0-3.13-0.087-4.692-0.294c-9.631-0.739-18.61-5.394-25.205-12.327c-6.619-6.922-10.884-16.169-10.884-26.149   c0-0.484,0.046-0.979,0.061-1.458c-9.04-4.023-18.639-7.364-28.178-7.356c-1.38,0-2.759,0.076-4.141,0.216h-0.015   c-7.144,0.687-13.781,5.189-17,11.664v0.009v0.024c-4.884,9.511-5.858,20.628-6.007,31.667c27.38,1.785,54.922,8.356,79.081,22.241   h0.039l0.346,0.205c0.456,0.272,1.305,0.737,2.073,1.144c1.659-1.345,3.413-2.731,5.416-3.925   c7.325-4.878,16.004-7.303,24.68-7.303c3.853,0,7.711,0.492,11.451,1.451h0.015l0.155,0.046c0.052,0.007,0.094,0.026,0.139,0.026   v0.009c8.838,2.249,16.836,7.325,22.858,14.171c6.015,6.854,10.065,15.529,10.854,24.946v0.009h0.002v0.011h-0.002v-0.011h-0.009   v0.031c0.052,0.743,0.068,1.484,0.068,2.221c0,8.258-2.648,16.198-7.068,22.934c-4.126,6.305-9.816,11.584-16.365,15.16   c0.418,3.287,0.665,6.599,0.665,9.901c-0.007,17.782-6.137,35.261-16.814,49.269v0.009h-0.024   c-19.739,26.256-50.049,41.741-80.655,49.547h-0.009l-0.022,0.02c-16.32,3.962-33.149,5.987-49.975,5.987   c-25.081,0-50.143-4.522-73.526-13.901l-0.009-0.022h-0.024c-15.413-6.352-30.353-15.098-42.839-26.597l-0.096,0.095   l163.971,163.971C478.39,504.702,512,455.004,512,256c0-7.132-0.045-14.067-0.138-20.821L396.923,120.24   C397.299,120.743,397.681,121.24,398.033,121.76z" fill="#931A1D"/><path d="M115.88,251.485c6.279-13.744,16.084-25.408,27.291-35.104c-3.661-1.704-7.447-2.92-11.187-2.905   c-0.628,0-1.262,0.039-1.89,0.107h-0.087l-0.087,0.011c-5.372,0.148-10.793,2.489-14.862,6.244   c-4.073,3.74-6.767,8.79-6.974,14.358v0.052l-0.009,0.046c-0.039,0.449-0.055,0.9-0.055,1.329c0,3.435,1.055,6.754,2.842,9.777   C112.186,247.647,113.919,249.702,115.88,251.485z" fill="#931A1D"/><path d="M310.681,209.12l-0.163-0.057c-4.42-1.356-8.883-2.559-13.384-3.585c-13.46-3.064-27.256-4.59-41.037-4.59   c-18.51,0-37.018,2.737-54.739,8.203c-23.021,7.305-45.23,20.166-59.468,40.084v0.015c-7.214,9.947-11.442,22.296-11.442,34.592   c0,4.527,0.567,9.051,1.765,13.46l0.015,0.009c2.591,9.882,7.656,18.706,14.219,26.393c6.558,7.702,14.6,14.271,23.063,19.632   c1.874,1.162,3.755,2.269,5.682,3.352c24.578,13.717,52.88,19.73,80.979,19.73c4.753,0,9.531-0.166,14.254-0.51   c28.294-2.334,56.709-10.686,79.678-27.753l0.009-0.02c7.314-5.401,14.088-11.943,19.441-19.386   c5.377-7.443,9.317-15.768,11.067-24.804v-0.026l0.009-0.009c0.717-3.378,1.061-6.802,1.061-10.241   c0-12.251-4.42-24.558-11.577-34.468C355.844,229.289,333.707,216.339,310.681,209.12z M185.859,278.167   c-2.607-3.668-4.117-8.121-4.117-12.7c0-2.086,0.316-4.198,0.996-6.242c0,0,0.009-0.015,0.009-0.031v-0.009   c2.367-7.462,8.785-12.891,16.1-14.421c0.009,0,0.024,0,0.024,0c0.022,0,0.037-0.009,0.061-0.009   c1.469-0.342,2.973-0.516,4.45-0.516c5.525,0,10.862,2.267,14.881,5.972c4.004,3.696,6.734,8.929,6.734,14.833   c0,0.296-0.009,0.589-0.024,0.857c0.009,0.181,0.009,0.34,0.009,0.495c0,5.941-2.768,11.154-6.811,14.838   c-4.049,3.674-9.4,5.926-14.903,5.926c-2.206,0-4.435-0.39-6.595-1.179c-0.035-0.02-0.072-0.031-0.102-0.031   c-0.031-0.015-0.046-0.024-0.081-0.024C192.101,284.606,188.444,281.772,185.859,278.167z M320.257,324.653v0.007   c-0.501,1.835-1.393,3.389-2.5,4.647c-1.107,1.266-2.395,2.236-3.718,3.08c-2.672,1.652-5.505,2.785-7.635,4.043l-0.081,0.046   l-0.087,0.052c-16.174,7.608-34.331,11.786-52.385,11.786c-20.023,0.02-39.969-5.157-56.907-16.583   c-1.728-0.931-3.045-2.317-3.903-3.903c-0.904-1.674-1.338-3.52-1.338-5.364c0-2.044,0.534-4.093,1.617-5.858   c1.04-1.713,2.657-3.156,4.723-3.945h-0.009c0.068-0.028,0.133-0.055,0.201-0.081c1.316-0.597,2.648-0.885,3.919-0.885   c1.534,0,2.966,0.386,4.259,0.937c1.308,0.532,2.485,1.26,3.616,1.99c2.221,1.476,4.256,3.032,6.044,3.762l0.061,0.024l0.061,0.031   c11.85,5.821,24.933,8.598,38.095,8.598c17.54,0,35.209-4.91,50.232-13.879c1.587-1.055,3.374-1.545,5.093-1.545   c2.134,0,4.147,0.684,5.889,1.813c1.72,1.125,3.189,2.709,4.084,4.631c0.61,1.281,0.981,2.705,0.981,4.208   C320.566,323.051,320.464,323.844,320.257,324.653z M326.082,278.331c-2.655,3.627-6.418,6.447-10.845,7.687h0.009   c-0.039,0.015-0.076,0.015-0.096,0.026c-0.015,0-0.046,0.015-0.061,0.015c-2.075,0.711-4.198,1.042-6.31,1.042   c-4.945,0-9.799-1.783-13.678-4.817c-3.853-3.027-6.767-7.371-7.68-12.527h-0.009c0-0.015,0-0.031-0.009-0.052   c0-0.015,0-0.03-0.015-0.054h0.015c-0.286-1.332-0.434-2.657-0.434-3.971c0-4.466,1.519-8.748,4.028-12.292   c2.5-3.52,6.028-6.316,10.154-7.754c0.015,0,0.031-0.009,0.031-0.009c0.024,0,0.024-0.02,0.039-0.02   c2.339-0.865,4.801-1.295,7.238-1.295c4.442,0,8.816,1.345,12.508,3.807c3.646,2.424,6.604,5.976,8.088,10.392   c0.015,0.028,0.015,0.055,0.031,0.081c0,0.028,0.015,0.044,0.031,0.068l-0.024,0.004c0.876,2.245,1.277,4.559,1.277,6.861   C330.369,270.156,328.767,274.656,326.082,278.331z" fill="#931A1D"/><path d="M396.244,251.515c2.051-1.785,3.801-3.967,5.109-6.39c1.707-3.178,2.674-6.748,2.674-10.267   c-0.007-2.973-0.687-5.935-2.175-8.696l-0.039-0.035l-0.015-0.046c-1.99-4.104-5.12-7.201-8.892-9.313   c-3.77-2.125-8.184-3.206-12.61-3.206c-4.001,0-7.983,0.894-11.518,2.67C380.014,225.989,389.871,237.715,396.244,251.515z" fill="#931A1D"/><path d="M345.328,144.198c0.177,4.758,2.421,9.184,5.837,12.456c3.43,3.271,7.981,5.296,12.602,5.316h0.061h0.061   c0.331,0.026,0.671,0.026,0.996,0.026c4.662,0.009,9.289-2.001,12.765-5.261c3.483-3.276,5.776-7.73,5.961-12.527l0.009-0.024   v-0.031c0.031-0.366,0.046-0.713,0.046-1.088c0-4.936-2.308-9.644-5.924-13.131c-3.6-3.485-8.448-5.64-13.229-5.63   c-1.543,0-3.073,0.214-4.568,0.678l-0.054,0.002l-0.046,0.02c-3.939,1.022-7.631,3.452-10.285,6.676   c-2.659,3.213-4.276,7.183-4.276,11.311c0,0.371,0.009,0.752,0.046,1.138v0.024V144.198z" fill="#931A1D"/></g></svg>